<svg xmlns="http://www.w3.org/2000/svg" width="7000" height="3000">
<marker xmlns="http://www.w3.org/2000/svg" id="lineEnd" viewBox="0 0 10 10" refX="5" refY="5" markerUnits="strokeWidth" markerWidth="4" markerHeight="3" orient="auto">
<rect x="0" y="0" width="10" height="10" fill="red" />
</marker>
<rect x="0" y="0" width="7000" height="3000" style="fill:white;stroke:black;stroke-width:1;fill-opacity:0;stroke-opacity:0.6" />
<rect x="4666" y="1320" width="144" height="228" style="fill:blue;stroke:black;stroke-width:1;fill-opacity:0.2;stroke-opacity:0.6" />
<rect x="5932" y="2631" width="361" height="136" style="fill:gray;stroke:black;stroke-width:1;fill-opacity:0.2;stroke-opacity:0.6" />
<rect x="4244" y="1375" width="20" height="78" style="fill:gray;stroke:black;stroke-width:1;fill-opacity:0.2;stroke-opacity:0.6" />
<rect x="6508" y="877" width="260" height="124" style="fill:gray;stroke:black;stroke-width:1;fill-opacity:0.2;stroke-opacity:0.6" />
<circle cx="5555" cy="1042" r="10" style="fill:orange;stroke:orange;stroke-width:3;fill-opacity:0.1;stroke-opacity:0.8" />
<line x1="4666" y1="1548" x2="4666" y2="1454" marker-end="url(#lineEnd)" marker-start="url(#lineEnd)" style="stroke:red;stroke-width:3;stroke-opacity:0.8" />
<line x1="4666" y1="1454" x2="4666" y2="1320" marker-end="url(#lineEnd)" marker-start="url(#lineEnd)" style="stroke:red;stroke-width:3;stroke-opacity:0.8" />
<line x1="4810" y1="1548" x2="4810" y2="1454" marker-end="url(#lineEnd)" marker-start="url(#lineEnd)" style="stroke:red;stroke-width:3;stroke-opacity:0.8" />
<line x1="4810" y1="1454" x2="4810" y2="1320" marker-end="url(#lineEnd)" marker-start="url(#lineEnd)" style="stroke:red;stroke-width:3;stroke-opacity:0.8" />
<line x1="4666" y1="1548" x2="4810" y2="1548" marker-end="url(#lineEnd)" marker-start="url(#lineEnd)" style="stroke:red;stroke-width:3;stroke-opacity:0.8" />
<line x1="4666" y1="1454" x2="4810" y2="1454" marker-end="url(#lineEnd)" marker-start="url(#lineEnd)" style="stroke:red;stroke-width:3;stroke-opacity:0.8" />
<line x1="4666" y1="1320" x2="4810" y2="1320" marker-end="url(#lineEnd)" marker-start="url(#lineEnd)" style="stroke:red;stroke-width:3;stroke-opacity:0.8" />
<line x1="648" y1="1045" x2="4243" y2="1045" marker-end="url(#lineEnd)" marker-start="url(#lineEnd)" style="stroke:red;stroke-width:3;stroke-opacity:0.8" />
<line x1="648" y1="1042" x2="4243" y2="1042" marker-end="url(#lineEnd)" marker-start="url(#lineEnd)" style="stroke:red;stroke-width:3;stroke-opacity:0.8" />
<line x1="4861" y1="1042" x2="5429" y2="1042" marker-end="url(#lineEnd)" marker-start="url(#lineEnd)" style="stroke:red;stroke-width:3;stroke-opacity:0.8" />
<line x1="4360" y1="1320" x2="4360" y2="1045" marker-end="url(#lineEnd)" marker-start="url(#lineEnd)" style="stroke:red;stroke-width:3;stroke-opacity:0.8" />
<line x1="4443" y1="1042" x2="4666" y2="1042" marker-end="url(#lineEnd)" marker-start="url(#lineEnd)" style="stroke:red;stroke-width:3;stroke-opacity:0.8" />
<line x1="4443" y1="1320" x2="4666" y2="1320" marker-end="url(#lineEnd)" marker-start="url(#lineEnd)" style="stroke:red;stroke-width:3;stroke-opacity:0.8" />
<line x1="4666" y1="1042" x2="4810" y2="1042" marker-end="url(#lineEnd)" marker-start="url(#lineEnd)" style="stroke:red;stroke-width:3;stroke-opacity:0.8" />
<line x1="5429" y1="1042" x2="5555" y2="1042" marker-end="url(#lineEnd)" marker-start="url(#lineEnd)" style="stroke:red;stroke-width:3;stroke-opacity:0.8" />
<line x1="4265" y1="1045" x2="4360" y2="1045" marker-end="url(#lineEnd)" marker-start="url(#lineEnd)" style="stroke:red;stroke-width:3;stroke-opacity:0.8" />
<line x1="4265" y1="1042" x2="4360" y2="1042" marker-end="url(#lineEnd)" marker-start="url(#lineEnd)" style="stroke:red;stroke-width:3;stroke-opacity:0.8" />
<line x1="4360" y1="1042" x2="4443" y2="1042" marker-end="url(#lineEnd)" marker-start="url(#lineEnd)" style="stroke:red;stroke-width:3;stroke-opacity:0.8" />
<line x1="4360" y1="1320" x2="4443" y2="1320" marker-end="url(#lineEnd)" marker-start="url(#lineEnd)" style="stroke:red;stroke-width:3;stroke-opacity:0.8" />
<line x1="4810" y1="1042" x2="4861" y2="1042" marker-end="url(#lineEnd)" marker-start="url(#lineEnd)" style="stroke:red;stroke-width:3;stroke-opacity:0.8" />
<line x1="4243" y1="1045" x2="4265" y2="1045" marker-end="url(#lineEnd)" marker-start="url(#lineEnd)" style="stroke:red;stroke-width:3;stroke-opacity:0.8" />
<line x1="4243" y1="1042" x2="4265" y2="1042" marker-end="url(#lineEnd)" marker-start="url(#lineEnd)" style="stroke:red;stroke-width:3;stroke-opacity:0.8" />
<line x1="648" y1="1045" x2="648" y2="1042" marker-end="url(#lineEnd)" marker-start="url(#lineEnd)" style="stroke:red;stroke-width:3;stroke-opacity:0.8" />
</svg>
